<?xml version="1.0" standalone="no"?>
<!DOCTYPE svg PUBLIC "-//W3C//DTD SVG 20010904//EN"
 "http://www.w3.org/TR/2001/REC-SVG-20010904/DTD/svg10.dtd">
<svg version="1.0" xmlns="http://www.w3.org/2000/svg"
 width="400.000000pt" height="400.000000pt" viewBox="0 0 400.000000 400.000000"
 preserveAspectRatio="xMidYMid meet">

<g transform="translate(0.000000,400.000000) scale(0.100000,-0.100000)"
fill="#000000" stroke="none">
<path d="M1156 2396 c-38 -40 -62 -124 -53 -188 7 -49 43 -88 83 -88 90 0 151
224 79 288 -37 32 -72 28 -109 -12z m84 -26 c0 -10 -9 -24 -20 -30 -11 -6 -29
-29 -40 -50 -11 -22 -25 -40 -30 -40 -18 0 -21 39 -5 76 22 53 33 64 66 64 22
0 29 -5 29 -20z m-80 -161 c0 -24 -23 -21 -28 4 -2 10 3 17 12 17 10 0 16 -9
16 -21z"/>
<path d="M2148 2277 c-37 -30 -60 -91 -60 -158 0 -73 22 -116 70 -136 34 -14
40 -14 72 3 91 49 119 234 43 293 -35 28 -90 27 -125 -2z m76 -13 c24 -9 19
-38 -10 -63 -14 -12 -32 -38 -40 -56 -15 -36 -43 -40 -45 -6 -4 58 13 95 53
118 28 15 23 14 42 7z m-60 -183 c10 -15 -5 -40 -20 -34 -18 7 -18 43 0 43 8
0 17 -4 20 -9z"/>
<path d="M231 1964 c0 -11 3 -14 6 -6 3 7 2 16 -1 19 -3 4 -6 -2 -5 -13z"/>
<path d="M1460 1893 c-213 -38 -324 -142 -389 -363 -28 -96 -33 -132 -32 -257
0 -175 43 -306 133 -408 53 -60 100 -89 194 -120 109 -36 278 -36 381 -1 183
62 330 208 389 386 25 77 28 98 28 230 0 126 -3 154 -23 210 -63 182 -199 286
-420 324 -112 19 -149 19 -261 -1z m480 -611 c0 -6 -24 -16 -92 -39 -12 -3
-18 0 -18 10 0 9 8 21 18 26 20 12 92 15 92 3z"/>
<path d="M255 1865 c4 -22 10 -42 14 -45 4 -3 14 -33 21 -67 8 -35 18 -63 22
-63 4 0 13 -27 20 -60 6 -33 17 -60 23 -60 5 0 3 -5 -7 -10 -15 -9 -15 -15 -2
-67 9 -32 21 -71 29 -88 7 -16 17 -43 21 -60 4 -16 10 -34 14 -40 5 -5 16 -36
25 -67 9 -32 20 -60 25 -63 4 -3 11 22 15 55 6 50 3 68 -14 105 -12 25 -21 51
-21 59 0 8 -4 17 -9 20 -5 4 -15 29 -22 56 -7 28 -16 50 -20 50 -3 0 -9 13
-12 30 -4 16 -15 49 -26 72 -10 24 -22 60 -26 81 -4 20 -11 37 -15 37 -4 0
-12 25 -19 55 -7 31 -19 68 -28 83 -15 27 -15 27 -8 -13z"/>
<path d="M3063 793 c-13 -2 -23 -5 -24 -6 -2 -6 -30 -255 -45 -407 -9 -96 -20
-177 -24 -180 -4 -3 -9 -43 -12 -90 -2 -47 -3 -73 -1 -57 3 15 8 27 14 27 5 0
9 17 9 37 0 20 5 87 12 148 10 91 16 114 34 131 17 16 24 38 29 90 4 38 11 74
15 79 4 6 10 44 14 85 4 41 9 92 13 113 3 20 2 36 -3 36 -5 -1 -19 -4 -31 -6z"/>
</g>
</svg>
