<?xml version="1.0" standalone="no"?>
<!DOCTYPE svg PUBLIC "-//W3C//DTD SVG 20010904//EN"
 "http://www.w3.org/TR/2001/REC-SVG-20010904/DTD/svg10.dtd">
<svg version="1.0" xmlns="http://www.w3.org/2000/svg"
 width="310.000000pt" height="163.000000pt" viewBox="0 0 310.000000 163.000000"
 preserveAspectRatio="xMidYMid meet">

<g transform="translate(0.000000,163.000000) scale(0.100000,-0.100000)"
fill="#000000" stroke="none">
<path d="M1210 1360 c-91 -17 -145 -53 -183 -124 -21 -40 -22 -52 -24 -376 -1
-201 1 -327 7 -315 5 11 9 30 9 41 1 12 8 25 17 28 26 10 84 7 84 -5 0 -6 6
-16 13 -23 10 -10 11 31 9 203 -4 298 12 352 125 408 l58 28 225 0 c211 0 228
-1 273 -22 62 -29 104 -76 122 -137 21 -71 21 -432 0 -503 -19 -63 -83 -126
-147 -143 -23 -7 -54 -16 -68 -20 -25 -8 -25 -8 7 -15 18 -4 30 -11 28 -15 -3
-5 4 -11 15 -15 11 -3 20 -13 20 -21 0 -8 7 -26 16 -39 12 -19 25 -25 53 -25
99 0 176 54 211 148 20 53 21 71 18 416 -3 350 -4 362 -25 402 -25 47 -69 87
-122 111 -31 15 -83 17 -366 19 -181 1 -350 -1 -375 -6z"/>
<path d="M1323 1139 c-49 -14 -91 -62 -98 -113 -4 -24 -5 -133 -3 -243 3 -172
5 -203 21 -227 10 -15 21 -25 25 -21 4 3 0 10 -8 15 -12 7 -12 11 1 26 9 11 9
15 2 10 -10 -5 -13 3 -12 31 1 34 2 35 9 13 7 -23 8 -22 10 10 1 19 4 29 7 23
2 -8 22 -13 44 -13 29 0 39 -4 39 -16 0 -8 5 -12 10 -9 6 3 10 -3 10 -14 0
-12 5 -21 11 -21 5 0 8 4 5 9 -3 5 5 8 18 7 13 0 22 -5 18 -10 -3 -5 9 -6 29
-3 21 4 29 4 20 -2 -9 -6 3 -16 44 -37 33 -16 62 -39 68 -53 11 -23 14 -23 95
-18 99 7 147 29 174 78 17 31 19 54 16 264 -4 328 4 319 -313 322 -115 1 -224
-2 -242 -8z m489 -85 c14 -29 5 -51 -27 -66 -50 -23 -90 53 -44 85 26 19 58
10 71 -19z m-208 -35 c190 -48 211 -313 31 -398 -138 -65 -295 37 -295 191 1
94 56 173 142 205 43 15 69 15 122 2z m-201 -384 c12 -8 17 -15 11 -15 -15 0
-54 39 -54 53 0 7 5 4 11 -5 5 -10 19 -24 32 -33z"/>
<path d="M1484 931 c-18 -11 -39 -30 -48 -42 -22 -32 -21 -106 3 -145 20 -32
74 -64 110 -64 35 0 86 26 109 55 30 38 31 121 1 159 -44 56 -118 72 -175 37z"/>
</g>
</svg>
