<?xml version="1.0" standalone="no"?>
<!DOCTYPE svg PUBLIC "-//W3C//DTD SVG 20010904//EN"
 "http://www.w3.org/TR/2001/REC-SVG-20010904/DTD/svg10.dtd">
<svg version="1.0" xmlns="http://www.w3.org/2000/svg"
 width="360.000000pt" height="360.000000pt" viewBox="0 0 360.000000 360.000000"
 preserveAspectRatio="xMidYMid meet">

<g transform="translate(0.000000,360.000000) scale(0.100000,-0.100000)"
fill="#000000" stroke="none">
<path d="M450 2615 c0 -18 5 -25 20 -25 13 0 20 7 20 20 0 18 8 20 123 23
l122 3 -142 2 -143 2 0 -25z"/>
<path d="M960 2615 c0 -18 5 -25 20 -25 13 0 20 7 20 20 0 18 8 20 118 23
l117 3 -137 2 -138 2 0 -25z"/>
<path d="M1270 2615 c0 -18 5 -25 20 -25 13 0 20 7 20 20 0 19 8 20 438 23
l437 2 -457 3 -458 2 0 -25z"/>
<path d="M2397 2633 c-4 -3 -7 -15 -7 -25 0 -25 36 -24 43 2 4 17 15 20 108
23 l104 3 -121 2 c-66 1 -124 -1 -127 -5z"/>
<path d="M2857 2633 c-4 -3 -7 -15 -7 -25 0 -25 36 -24 43 2 5 18 15 20 128
23 l124 3 -141 2 c-77 1 -144 -1 -147 -5z"/>
<path d="M507 2583 c-4 -3 -7 -26 -7 -50 0 -36 3 -43 20 -43 17 0 20 7 20 50
0 35 -4 50 -13 50 -8 0 -17 -3 -20 -7z"/>
<path d="M1020 2500 c0 -73 3 -90 15 -90 12 0 15 17 15 90 0 73 -3 90 -15 90
-12 0 -15 -17 -15 -90z"/>
<path d="M1320 2560 c0 -23 4 -30 20 -30 16 0 20 7 20 30 0 23 -4 30 -20 30
-16 0 -20 -7 -20 -30z"/>
<path d="M2436 2573 c-3 -10 -14 -51 -25 -91 l-20 -73 21 3 c17 2 25 18 44 88
13 47 24 86 24 88 0 1 -9 2 -19 2 -11 0 -22 -8 -25 -17z"/>
<path d="M2897 2573 c-18 -65 -18 -73 2 -73 19 0 23 6 35 63 5 22 3 27 -13 27
-11 0 -22 -8 -24 -17z"/>
<path d="M440 2536 c0 -8 -8 -17 -17 -19 -14 -4 -12 -5 5 -6 16 -1 22 5 22 19
0 11 -2 20 -5 20 -3 0 -5 -6 -5 -14z"/>
<path d="M1268 2505 c-4 -21 -1 -25 18 -25 19 0 24 5 24 25 0 18 -5 25 -19 25
-12 0 -20 -9 -23 -25z"/>
<path d="M450 2466 c0 -20 5 -26 21 -26 15 0 20 5 17 22 -5 34 -38 37 -38 4z"/>
<path d="M2851 2474 c0 -11 3 -14 6 -6 3 7 2 16 -1 19 -3 4 -6 -2 -5 -13z"/>
<path d="M1320 2440 c0 -23 4 -30 20 -30 16 0 20 7 20 30 0 23 -4 30 -20 30
-16 0 -20 -7 -20 -30z"/>
<path d="M2010 2425 c0 -8 7 -15 15 -15 8 0 15 7 15 15 0 8 -7 15 -15 15 -8 0
-15 -7 -15 -15z"/>
<path d="M505 2420 c3 -5 13 -10 21 -10 8 0 14 5 14 10 0 6 -9 10 -21 10 -11
0 -17 -4 -14 -10z"/>
<path d="M2868 2413 c6 -2 18 -2 25 0 6 3 1 5 -13 5 -14 0 -19 -2 -12 -5z"/>
<path d="M450 2299 c0 -100 2 -110 18 -107 15 3 17 18 20 111 3 102 2 107 -18
107 -19 0 -20 -6 -20 -111z"/>
<path d="M960 2333 c0 -61 4 -85 20 -108 l20 -30 0 108 c0 100 -1 107 -20 107
-18 0 -20 -7 -20 -77z"/>
<path d="M1270 2299 c0 -100 2 -110 18 -107 15 3 17 18 20 111 3 102 2 107
-18 107 -19 0 -20 -6 -20 -111z"/>
<path d="M1964 2393 c3 -10 12 -45 21 -78 25 -99 36 -125 51 -125 18 0 18 -3
-15 115 -21 72 -33 101 -46 103 -12 3 -15 -1 -11 -15z"/>
<path d="M2316 2343 c-18 -76 -20 -111 -7 -132 7 -11 14 2 26 45 48 171 45
154 20 154 -19 0 -24 -9 -39 -67z"/>
<path d="M2795 2383 c-4 -16 -11 -47 -17 -70 -10 -41 -4 -113 10 -113 6 0 52
180 52 203 0 4 -9 7 -20 7 -13 0 -21 -9 -25 -27z"/>
<path d="M3270 2371 c0 -6 -21 -12 -47 -14 l-48 -3 53 -2 c40 -2 52 1 52 13 0
8 -2 15 -5 15 -3 0 -5 -4 -5 -9z"/>
<path d="M420 2316 c0 -11 -15 -16 -52 -19 l-53 -3 58 -2 c51 -2 57 0 57 18 0
11 -2 20 -5 20 -3 0 -5 -7 -5 -14z"/>
<path d="M1648 2303 c45 -2 119 -2 165 0 45 1 8 3 -83 3 -91 0 -128 -2 -82 -3z"/>
<path d="M500 2000 c0 -183 1 -190 20 -190 19 0 20 7 20 190 0 182 -1 190 -20
190 -18 0 -19 -8 -20 -190z"/>
<path d="M800 2174 c0 -8 20 -48 43 -87 24 -40 59 -100 78 -134 19 -35 40 -63
47 -63 17 0 20 -7 -73 158 -77 136 -95 160 -95 126z"/>
<path d="M1320 2040 c0 -143 1 -150 20 -150 19 0 20 7 20 150 0 143 -1 150
-20 150 -19 0 -20 -7 -20 -150z"/>
<path d="M2080 2176 c0 -31 19 -66 34 -60 11 4 12 12 3 40 -10 33 -37 48 -37
20z"/>
<path d="M2598 2173 c-4 -21 87 -352 101 -366 24 -24 19 25 -18 155 -22 79
-44 162 -51 186 -11 44 -26 55 -32 25z"/>
<path d="M2040 2106 c0 -21 23 -56 36 -56 11 0 14 5 10 16 -3 9 -6 22 -6 30 0
8 -9 14 -20 14 -11 0 -20 -2 -20 -4z"/>
<path d="M1690 2057 c0 -8 -8 -18 -17 -20 -17 -4 -17 -5 0 -6 18 -1 35 25 23
36 -3 4 -6 -1 -6 -10z"/>
<path d="M303 2053 c37 -2 96 -2 130 0 34 2 4 3 -68 3 -71 0 -99 -1 -62 -3z"/>
<path d="M2120 2032 c1 -17 56 -222 62 -228 2 -1 9 0 15 4 16 10 -43 228 -63
236 -9 3 -14 -1 -14 -12z"/>
<path d="M1718 1963 c50 -2 134 -2 185 0 50 1 9 3 -93 3 -102 0 -143 -2 -92
-3z"/>
<path d="M848 1933 c12 -2 32 -2 45 0 12 2 2 4 -23 4 -25 0 -35 -2 -22 -4z"/>
<path d="M914 1874 c3 -9 6 -18 6 -20 0 -2 7 -4 15 -4 13 0 14 4 5 20 -13 24
-35 27 -26 4z"/>
<path d="M1270 1870 c0 -13 7 -20 20 -20 13 0 20 7 20 20 0 13 -7 20 -20 20
-13 0 -20 -7 -20 -20z"/>
<path d="M990 1830 c6 -11 17 -20 26 -20 12 0 12 4 4 20 -6 11 -17 20 -26 20
-12 0 -12 -4 -4 -20z"/>
<path d="M1320 1825 c0 -27 1 -28 24 -19 24 9 20 44 -4 44 -15 0 -20 -7 -20
-25z"/>
<path d="M2095 1759 c-31 -5 -22 -6 38 -8 42 0 77 1 77 3 0 8 -76 11 -115 5z"/>
<path d="M376 1631 c-3 -5 3 -11 14 -14 13 -3 20 0 20 9 0 15 -26 19 -34 5z"/>
<path d="M3010 1630 c0 -6 28 -10 65 -10 37 0 65 4 65 10 0 6 -28 10 -65 10
-37 0 -65 -4 -65 -10z"/>
<path d="M285 1586 c-64 -20 -91 -43 -114 -96 -20 -45 -21 -67 -21 -313 0
-170 4 -276 11 -298 13 -37 52 -84 84 -101 17 -9 17 -8 -3 15 -13 13 -19 26
-13 28 13 5 -10 79 -25 79 -20 0 -24 39 -24 223 0 151 2 177 15 177 20 0 21
76 1 83 -11 5 -12 14 -5 48 15 63 59 130 59 87 0 -6 17 6 38 28 l37 39 245 6
245 5 -245 1 c-172 1 -257 -2 -285 -11z"/>
<path d="M1179 1573 c-6 -16 -49 -129 -95 -253 -46 -124 -89 -233 -94 -242 -7
-12 -7 -18 0 -18 16 0 12 -60 -5 -66 -9 -4 -15 -18 -14 -38 l1 -31 14 33 c8
17 21 32 29 32 9 0 20 12 25 26 13 33 13 47 0 39 -15 -9 -13 3 12 74 13 37 30
66 39 68 25 7 42 50 23 57 -12 4 -12 10 -4 26 6 11 17 20 25 20 19 0 42 70 26
79 -15 10 38 151 56 151 7 0 19 13 28 30 15 29 16 29 113 33 88 3 85 3 -36 5
l-132 2 -11 -27z"/>
<path d="M1758 1268 c-3 -297 -2 -338 14 -378 17 -44 17 -38 17 298 1 297 3
342 16 342 10 0 15 10 15 31 l0 30 95 -3 c52 -2 95 0 95 5 0 4 -56 7 -124 7
l-124 0 -4 -332z"/>
<path d="M2432 1548 c-16 -29 -57 -104 -91 -166 -33 -62 -68 -123 -76 -135
-12 -19 -13 -26 -2 -41 16 -22 14 -26 117 167 46 85 80 137 90 137 8 0 24 17
35 38 l20 37 95 6 95 5 -127 2 -127 2 -29 -52z"/>
<path d="M2780 1520 c0 -47 4 -80 10 -80 6 0 10 -18 10 -40 0 -22 -4 -40 -10
-40 -5 0 -10 -11 -10 -25 0 -14 5 -25 10 -25 6 0 10 -28 10 -65 0 -37 -4 -65
-10 -65 -6 0 -10 -43 -10 -110 0 -67 4 -110 10 -110 6 0 10 -25 10 -55 0 -30
-4 -55 -10 -55 -5 0 -10 -20 -10 -44 0 -39 2 -44 20 -39 16 4 20 14 20 44 0
26 5 39 13 39 18 0 17 102 -1 108 -18 6 -17 222 1 222 18 0 16 122 -1 128 -9
3 -12 44 -12 143 l0 139 283 3 282 2 -302 3 -303 2 0 -80z"/>
<path d="M3173 1263 c37 -2 97 -2 135 0 37 2 6 3 -68 3 -74 0 -105 -1 -67 -3z"/>
<path d="M1365 1236 c-5 -11 -3 -21 4 -25 6 -4 11 -21 10 -37 -1 -16 3 -42 10
-57 17 -43 15 -46 -36 -50 -34 -2 -25 -4 30 -5 63 -2 77 1 77 13 0 8 -7 15
-15 15 -20 0 -32 30 -16 39 15 9 -4 67 -25 75 -8 3 -18 16 -23 28 -8 21 -10
22 -16 4z"/>
<path d="M520 1170 c0 -56 3 -70 15 -70 12 0 15 14 15 65 l0 65 183 3 182 2
-197 3 -198 2 0 -70z"/>
<path d="M2084 1083 c4 -16 10 -44 15 -63 8 -39 38 -90 52 -90 12 0 11 11 -6
40 -8 14 -14 35 -15 47 0 28 -31 93 -43 93 -5 0 -6 -12 -3 -27z"/>
<path d="M2496 1039 c-23 -45 -26 -63 -26 -159 0 -115 4 -123 53 -112 22 6 25
72 2 72 -12 0 -15 14 -15 70 0 56 3 70 15 70 11 0 15 12 15 49 0 28 -4 52 -9
56 -6 3 -21 -18 -35 -46z"/>
<path d="M670 990 l0 -70 -107 -2 -108 -2 105 -4 c150 -4 150 -4 150 68 0 47
3 60 15 60 8 0 15 5 15 10 0 6 -16 10 -35 10 l-35 0 0 -70z"/>
<path d="M3112 1010 c0 -14 2 -19 5 -12 2 6 2 18 0 25 -3 6 -5 1 -5 -13z"/>
<path d="M3173 923 c37 -2 96 -2 130 0 34 2 4 3 -68 3 -71 0 -99 -1 -62 -3z"/>
<path d="M1490 828 c11 -29 20 -54 20 -55 0 -2 7 -3 15 -3 18 0 19 -5 -4 55
-10 28 -26 51 -35 53 -15 3 -14 -3 4 -50z"/>
<path d="M2142 864 c-4 -7 -16 -14 -27 -17 -11 -2 19 -5 68 -6 69 -1 87 2 87
13 0 18 -118 27 -128 10z"/>
</g>
</svg>
