<?xml version="1.0" standalone="no"?>
<!DOCTYPE svg PUBLIC "-//W3C//DTD SVG 20010904//EN"
 "http://www.w3.org/TR/2001/REC-SVG-20010904/DTD/svg10.dtd">
<svg version="1.0" xmlns="http://www.w3.org/2000/svg"
 width="225.000000pt" height="225.000000pt" viewBox="0 0 225.000000 225.000000"
 preserveAspectRatio="xMidYMid meet">

<g transform="translate(0.000000,225.000000) scale(0.100000,-0.100000)"
fill="#000000" stroke="none">
<path d="M996 1945 c-70 -123 -129 -232 -130 -242 -1 -16 10 -18 92 -21 50 -1
92 -5 92 -7 0 -3 -10 -25 -22 -49 -20 -43 -25 -46 -77 -57 -84 -17 -198 -63
-280 -114 -40 -25 -75 -45 -77 -45 -2 0 -4 8 -4 18 0 30 -44 151 -82 227 -71
140 -176 255 -292 320 -63 35 -178 71 -195 60 -17 -10 -24 -136 -12 -235 27
-242 137 -456 310 -602 l44 -37 -41 -78 c-77 -148 -101 -278 -78 -410 88 -505
839 -760 1386 -471 243 128 385 338 384 568 -1 99 -24 184 -79 297 l-46 93 72
67 c158 149 252 340 280 565 11 94 5 233 -12 244 -14 8 -122 -22 -177 -50
-115 -58 -230 -180 -302 -318 -43 -82 -90 -208 -90 -240 0 -24 -1 -24 -62 16
-76 48 -126 72 -208 100 l-71 24 115 102 c69 61 116 110 116 122 0 16 -9 18
-95 18 -52 0 -95 3 -95 6 0 3 59 76 130 162 72 86 129 164 128 172 -3 13 -39
15 -249 18 l-245 2 -128 -225z m527 153 c-11 -13 -66 -79 -123 -148 -57 -69
-110 -133 -118 -142 -27 -32 0 -47 91 -50 l81 -3 -98 -86 -97 -86 -92 5 c-51
2 -93 6 -95 7 -2 2 8 26 22 53 38 75 31 82 -74 82 l-88 0 111 195 111 195 195
0 194 0 -20 -22z m-1150 -327 c86 -109 160 -276 182 -413 5 -30 10 -38 26 -38
12 0 23 8 26 18 4 18 92 81 162 117 114 58 286 92 412 81 86 -7 227 -44 292
-77 77 -39 165 -102 171 -122 8 -31 39 -16 49 23 47 186 98 300 184 413 l48
62 6 -70 c3 -38 12 -82 19 -97 17 -36 66 -58 128 -58 28 0 54 -5 58 -11 3 -6
-2 -29 -12 -52 -62 -143 -170 -279 -275 -344 -74 -45 -82 -80 -17 -74 12 2 28
-19 51 -66 128 -254 99 -489 -83 -673 -157 -159 -419 -260 -675 -260 -395 0
-753 223 -824 514 -15 63 -15 189 0 252 6 27 31 91 55 142 32 70 48 93 61 92
34 -4 43 0 43 19 0 11 -21 31 -59 54 -105 65 -213 200 -276 345 -11 25 -15 46
-9 51 5 5 37 11 71 13 95 6 133 53 133 163 0 30 2 55 4 55 1 0 24 -27 49 -59z"/>
<path d="M640 1173 c-59 -22 -110 -95 -110 -158 0 -16 9 -48 19 -71 63 -139
272 -118 310 30 26 105 -53 207 -159 205 -25 0 -52 -3 -60 -6z m15 -113 c0
-18 -6 -26 -23 -28 -24 -4 -38 18 -28 44 3 9 15 14 28 12 17 -2 23 -10 23 -28z"/>
<path d="M1471 1160 c-46 -29 -68 -57 -80 -105 -29 -113 57 -213 173 -203 66
5 112 36 137 92 23 52 23 90 0 142 -26 57 -72 87 -140 92 -44 2 -63 -1 -90
-18z m34 -100 c0 -18 -6 -26 -23 -28 -24 -4 -38 18 -28 44 3 9 15 14 28 12 17
-2 23 -10 23 -28z"/>
<path d="M1040 905 c-15 -18 -7 -31 31 -51 39 -20 37 -61 -3 -84 -25 -13 -31
-13 -55 0 -16 9 -30 25 -32 35 -7 38 -51 41 -51 3 0 -74 98 -123 170 -84 21
12 29 12 52 0 73 -38 168 10 168 84 0 38 -44 35 -51 -3 -2 -10 -16 -26 -32
-35 -24 -13 -30 -13 -54 0 -41 23 -43 64 -4 84 38 20 46 33 31 51 -9 11 -34
15 -85 15 -51 0 -76 -4 -85 -15z"/>
<path d="M534 816 c-94 -41 -101 -177 -10 -220 45 -21 74 -20 113 4 49 30 66
63 60 116 -5 51 -27 81 -74 100 -39 17 -49 17 -89 0z"/>
<path d="M1625 816 c-45 -20 -67 -50 -72 -100 -6 -53 11 -86 60 -116 39 -24
68 -25 113 -4 92 44 84 180 -12 220 -40 17 -51 17 -89 0z"/>
</g>
</svg>
