<?xml version="1.0" standalone="no"?>
<!DOCTYPE svg PUBLIC "-//W3C//DTD SVG 20010904//EN"
 "http://www.w3.org/TR/2001/REC-SVG-20010904/DTD/svg10.dtd">
<svg version="1.0" xmlns="http://www.w3.org/2000/svg"
 width="736.000000pt" height="736.000000pt" viewBox="0 0 736.000000 736.000000"
 preserveAspectRatio="xMidYMid meet">

<g transform="translate(0.000000,736.000000) scale(0.100000,-0.100000)"
fill="#000000" stroke="none">
<path d="M1955 5944 c-117 -12 -310 -50 -384 -76 -177 -63 -397 -180 -489
-261 -51 -46 -210 -204 -255 -255 -57 -63 -129 -176 -185 -288 -168 -338 -214
-711 -131 -1064 12 -47 22 -94 23 -105 5 -35 17 -68 73 -195 65 -147 163 -297
279 -430 45 -52 693 -705 1438 -1450 l1355 -1354 1395 1394 c766 767 1421
1430 1454 1472 100 127 166 237 225 368 56 126 68 159 73 195 2 11 14 72 29
135 74 333 25 712 -133 1025 -95 189 -152 266 -312 425 -133 132 -160 155
-253 213 -277 172 -552 251 -872 250 -256 0 -425 -35 -650 -134 -333 -146
-620 -421 -783 -751 -57 -116 -107 -238 -97 -238 3 0 0 -12 -6 -27 -17 -44
-59 -254 -59 -295 0 -21 -4 -38 -10 -38 -5 0 -10 17 -10 38 0 41 -42 251 -59
295 -6 15 -9 27 -6 27 10 0 -40 122 -97 238 -163 330 -450 605 -783 751 -147
65 -219 87 -351 110 -119 20 -339 33 -419 25z"/>
</g>
</svg>
