<?xml version="1.0" standalone="no"?>
<!DOCTYPE svg PUBLIC "-//W3C//DTD SVG 20010904//EN"
 "http://www.w3.org/TR/2001/REC-SVG-20010904/DTD/svg10.dtd">
<svg version="1.0" xmlns="http://www.w3.org/2000/svg"
 width="360.000000pt" height="360.000000pt" viewBox="0 0 360.000000 360.000000"
 preserveAspectRatio="xMidYMid meet">

<g transform="translate(0.000000,360.000000) scale(0.100000,-0.100000)"
fill="#000000" stroke="none">
<path d="M1505 2714 c-22 -35 -68 -111 -103 -167 -62 -101 -99 -194 -88 -223
7 -19 26 -18 26 2 0 31 64 136 103 169 41 36 84 52 99 37 5 -5 -6 -29 -27 -58
-45 -62 -67 -110 -63 -138 2 -17 11 -22 42 -24 37 -3 43 1 112 72 41 41 74 80
74 86 0 7 -21 -11 -46 -39 -50 -56 -87 -85 -121 -95 -33 -10 -29 10 12 72 43
63 57 99 50 122 -8 26 -51 30 -93 9 -20 -11 -37 -19 -39 -19 -1 0 20 35 46 78
69 111 83 141 76 162 -4 11 -9 20 -13 20 -4 0 -25 -30 -47 -66z"/>
<path d="M1012 2685 c-104 -46 -153 -138 -102 -193 27 -29 61 -36 104 -22 41
13 92 70 102 113 10 46 -3 43 -24 -7 -46 -102 -182 -118 -182 -21 0 20 12 39
40 66 50 48 117 64 205 49 33 -5 64 -10 68 -10 5 0 -13 -21 -40 -47 -27 -27
-74 -87 -105 -134 -35 -53 -70 -95 -93 -109 -43 -26 -119 -38 -130 -20 -11 18
8 30 61 39 l49 9 -43 1 c-55 1 -82 -13 -82 -44 0 -33 27 -45 96 -45 63 0 126
25 161 63 12 12 44 65 72 117 73 136 83 147 165 168 38 9 71 22 73 27 2 6 -63
11 -180 12 -142 2 -189 -1 -215 -12z"/>
<path d="M1742 2628 c-7 -7 -12 -17 -12 -24 0 -19 27 -24 41 -8 17 21 -10 51
-29 32z"/>
<path d="M1882 2553 c-21 -57 -107 -168 -157 -201 -28 -19 -51 -29 -53 -23 -2
6 15 32 38 59 63 70 79 127 46 160 -15 15 -16 14 -16 -8 -1 -14 -14 -43 -30
-65 -54 -74 -82 -124 -78 -142 5 -29 58 -28 101 2 40 27 48 30 46 18 -7 -42
54 -46 99 -8 37 31 40 31 44 -2 3 -24 8 -28 40 -31 33 -3 44 3 86 42 49 46
119 136 105 136 -4 -1 -25 -23 -47 -51 -43 -56 -106 -103 -131 -97 -12 2 -5
20 35 86 48 78 60 121 35 129 -5 1 -30 -29 -55 -68 -43 -67 -87 -111 -138
-138 -44 -23 -41 -6 13 82 57 90 65 116 41 136 -11 9 -16 6 -24 -16z"/>
<path d="M2235 2527 c-26 -26 -33 -43 -39 -90 -6 -43 -11 -56 -19 -49 -17 14
-50 18 -64 9 -19 -12 -15 -52 6 -72 17 -14 31 -16 91 -10 62 6 77 12 120 46
45 35 86 82 105 119 4 8 -17 -10 -46 -41 -65 -67 -86 -84 -118 -94 -20 -6 -23
-5 -17 11 4 10 9 45 12 78 6 66 16 86 45 86 25 0 24 -17 -1 -32 -11 -7 -20
-16 -20 -20 0 -16 27 -7 50 17 22 23 22 25 6 50 -24 37 -69 34 -111 -8z m-70
-150 c20 -16 13 -37 -14 -37 -23 0 -41 19 -34 36 7 18 24 18 48 1z"/>
<path d="M2068 2173 c-55 -34 -87 -129 -74 -217 12 -80 92 -133 155 -103 31
15 65 79 56 107 -10 30 -23 24 -34 -16 -20 -73 -73 -97 -106 -48 -46 70 -41
182 11 244 29 34 49 37 82 14 32 -22 43 -7 12 16 -31 24 -66 25 -102 3z"/>
<path d="M2310 2180 c-12 -7 -7 -10 18 -10 50 0 72 -16 72 -51 0 -26 -2 -29
-19 -19 -49 25 -112 -4 -142 -68 -20 -41 -21 -50 -10 -91 7 -25 19 -53 28 -63
21 -23 65 -31 107 -19 20 5 38 6 41 1 2 -4 13 -10 22 -12 17 -4 18 6 18 136 0
78 -4 148 -8 156 -16 34 -98 60 -127 40z m75 -103 c16 -12 17 -23 11 -83 -8
-80 -26 -114 -61 -114 -63 0 -89 119 -39 179 28 33 59 39 89 18z"/>
<path d="M2477 2183 c-4 -3 -7 -80 -7 -170 0 -153 1 -163 19 -163 16 0 19 10
23 83 9 154 83 260 142 202 13 -13 14 -35 9 -130 -5 -97 -3 -118 11 -139 21
-33 51 -35 42 -3 -3 12 -6 75 -6 140 0 112 -1 119 -25 142 -45 46 -115 28
-156 -39 l-19 -31 0 35 c0 62 -14 93 -33 73z"/>
<path d="M1320 2102 c0 -18 4 -32 8 -32 9 0 8 47 -1 57 -4 3 -7 -8 -7 -25z"/>
<path d="M885 1998 c-3 -35 -5 -132 -3 -217 l3 -155 54 -3 c49 -3 56 0 86 30
50 50 74 167 46 221 -20 37 -67 53 -100 35 -14 -8 -30 -25 -36 -37 -13 -30
-23 -28 -22 6 3 78 -4 182 -12 182 -5 0 -12 -28 -16 -62z m145 -113 c37 -44
18 -170 -33 -216 -36 -33 -49 -36 -72 -12 -14 13 -16 29 -12 74 5 58 38 147
60 161 19 12 44 9 57 -7z"/>
<path d="M1106 1910 c-8 -25 -13 -268 -6 -281 15 -23 30 3 30 50 0 56 24 143
52 189 19 30 24 33 54 27 40 -7 47 11 8 21 -39 10 -73 -11 -94 -59 l-20 -42 0
40 c0 46 -15 80 -24 55z"/>
<path d="M1338 1904 c-39 -20 -58 -64 -58 -129 0 -104 48 -167 113 -149 66 20
100 117 72 211 -23 77 -67 100 -127 67z m92 -36 c40 -66 19 -195 -36 -220 -23
-11 -28 -10 -45 10 -25 32 -41 118 -30 165 19 80 76 103 111 45z"/>
<path d="M1548 1904 c-39 -20 -58 -64 -58 -129 0 -127 74 -192 148 -130 52 43
64 152 26 227 -25 48 -67 59 -116 32z m88 -25 c15 -17 19 -37 19 -104 0 -75
-3 -86 -25 -110 -52 -56 -100 -1 -100 116 0 52 4 72 21 93 25 31 59 34 85 5z"/>
<path d="M1706 1904 c-8 -21 -8 -213 0 -253 4 -17 12 -31 19 -31 10 0 14 29
17 109 2 93 6 114 24 138 42 56 49 40 46 -104 -3 -106 -1 -133 10 -133 9 0 18
33 30 105 19 115 35 160 58 160 12 0 15 -21 15 -121 0 -88 4 -125 14 -137 7
-10 16 -17 20 -17 9 0 6 252 -3 272 -17 38 -68 32 -90 -10 l-13 -25 -7 26 c-3
14 -15 29 -27 32 -21 7 -69 -18 -69 -36 0 -6 -4 -7 -10 -4 -5 3 -10 15 -10 26
0 23 -15 25 -24 3z"/>
<path d="M1441 1503 c-28 -29 -87 -175 -100 -248 l-6 -40 -57 -3 -57 -3 20 40
c48 100 63 242 27 265 -67 42 -145 -141 -155 -364 -4 -106 -3 -118 19 -160 42
-80 115 -75 138 10 14 50 5 100 -26 146 -13 19 -24 37 -24 39 0 3 24 5 53 5
l53 0 -4 -69 c-2 -38 1 -85 8 -105 13 -40 52 -76 82 -76 23 0 81 59 108 110
14 25 19 30 20 16 0 -11 9 -39 20 -62 25 -51 67 -73 106 -55 41 18 39 13 -19
-48 -58 -60 -71 -88 -65 -137 6 -58 96 -71 153 -21 32 27 55 109 55 193 0 79
21 104 44 50 25 -59 85 -63 123 -7 22 32 23 33 23 9 0 -30 17 -48 47 -48 25 0
28 8 38 100 8 75 41 174 67 196 l20 19 -8 -85 c-12 -115 -9 -158 11 -180 22
-24 60 -33 85 -20 16 8 26 6 49 -11 21 -15 37 -20 55 -15 26 6 33 -2 17 -20
-21 -22 -59 -141 -54 -167 12 -61 94 -77 143 -29 38 39 52 94 59 242 l6 124
31 21 c18 11 40 25 50 31 38 23 8 21 -40 -2 -28 -13 -50 -24 -51 -24 -1 0 -5
33 -8 73 -5 61 -10 75 -32 95 -33 28 -84 29 -118 2 -36 -28 -88 -139 -94 -197
-6 -73 -12 -93 -26 -93 -10 0 -12 28 -9 125 4 110 2 128 -13 145 -27 30 -70
25 -102 -11 l-28 -31 -5 27 c-6 34 -34 55 -50 39 -6 -6 -19 -58 -28 -115 -16
-102 -53 -198 -79 -207 -20 -6 -25 57 -13 148 6 47 14 114 17 148 6 63 6 64
-18 60 -35 -4 -68 -95 -76 -203 -4 -52 -11 -86 -18 -89 -9 -3 -14 26 -18 105
-7 112 -24 169 -52 169 -8 0 -16 -1 -16 -2 -1 -2 -4 -69 -8 -150 -6 -123 -10
-150 -25 -167 -23 -26 -51 -27 -61 -3 -4 9 -11 82 -15 162 -5 80 -9 146 -9
148 -1 1 -10 2 -20 2 -23 0 -28 -13 -37 -105 -7 -77 -28 -126 -75 -180 -46
-52 -59 -47 -59 23 0 97 34 241 76 326 40 82 49 141 24 157 -24 15 -40 10 -69
-18z m29 -78 c-16 -43 -23 -22 -8 27 9 29 14 37 16 22 2 -11 -2 -33 -8 -49z
m-225 -74 c-9 -37 -21 -73 -26 -81 -15 -22 -1 90 19 154 15 46 17 48 20 22 2
-15 -4 -58 -13 -95z m1188 -158 c-6 -127 -10 -145 -41 -183 -60 -71 -81 -4
-41 126 27 88 56 144 73 144 11 0 13 -18 9 -87z m-1208 -113 c7 -44 -1 -100
-16 -100 -5 0 -9 34 -9 76 0 79 13 92 25 24z m1192 -203 c-3 -40 -13 -91 -22
-113 -15 -37 -17 -38 -31 -20 -8 11 -14 28 -14 38 0 20 60 168 68 168 3 0 2
-33 -1 -73z m-719 -31 c-5 -104 -46 -149 -84 -91 -14 22 -15 30 -5 53 17 35
74 111 85 112 4 0 7 -33 4 -74z"/>
<path d="M1870 1465 c-19 -23 -8 -50 22 -53 29 -3 61 30 51 54 -7 18 -57 18
-73 -1z"/>
</g>
</svg>
