<?xml version="1.0" standalone="no"?>
<!DOCTYPE svg PUBLIC "-//W3C//DTD SVG 20010904//EN"
 "http://www.w3.org/TR/2001/REC-SVG-20010904/DTD/svg10.dtd">
<svg version="1.0" xmlns="http://www.w3.org/2000/svg"
 width="168.000000pt" height="300.000000pt" viewBox="0 0 168.000000 300.000000"
 preserveAspectRatio="xMidYMid meet">

<g transform="translate(0.000000,300.000000) scale(0.100000,-0.100000)"
fill="#000000" stroke="none">
<path d="M0 2280 l0 -719 43 -11 c23 -6 55 -15 71 -20 37 -12 36 -12 33 3 -1
6 -9 15 -17 20 -10 5 -7 6 8 3 20 -4 29 4 54 45 17 27 35 49 39 49 5 0 9 6 9
14 0 7 10 20 22 28 19 13 21 18 10 30 -11 13 -8 20 18 42 17 14 29 30 26 35
-3 5 3 7 15 4 18 -5 20 -3 15 14 -5 16 0 23 24 33 16 7 30 16 30 21 0 5 8 9
18 9 9 0 38 19 65 43 41 36 47 47 47 80 0 26 4 37 15 37 9 0 12 6 8 17 -4 11
-3 14 6 9 7 -5 22 3 38 21 15 15 34 32 43 38 68 42 80 51 80 63 0 6 8 12 18
12 10 0 55 36 100 80 45 44 88 80 97 80 9 0 19 8 22 17 10 27 150 163 167 163
8 0 23 13 33 30 11 20 25 30 41 30 12 0 32 9 44 20 12 11 29 20 37 21 38 2 56
9 85 37 17 16 41 35 54 41 12 7 22 18 22 26 0 8 9 15 20 15 11 0 20 4 20 10 0
5 16 17 36 26 20 9 38 23 41 31 3 7 9 13 14 13 4 0 31 17 58 38 47 34 51 40
51 80 l0 42 -840 0 -840 0 0 -720z"/>
<path d="M845 1791 c-3 -6 -6 -35 -7 -63 0 -29 -5 -62 -10 -72 -8 -16 -7 -18
6 -13 27 10 19 -36 -10 -64 -14 -13 -30 -33 -36 -44 -7 -14 -2 -11 17 8 14 15
31 25 36 21 5 -3 16 0 24 6 12 10 15 9 15 -8 0 -11 7 -22 15 -26 13 -5 12 -13
-9 -53 -27 -54 -69 -98 -85 -89 -5 4 -13 1 -17 -5 -5 -8 -3 -9 6 -4 9 6 11 4
6 -4 -5 -7 -15 -10 -23 -6 -9 3 -30 -6 -49 -20 -18 -14 -41 -25 -51 -24 -11 0
-13 3 -5 6 22 9 34 40 17 47 -8 3 -14 0 -12 -6 1 -5 -6 -12 -17 -13 -16 -3
-29 -13 -83 -61 -6 -7 -9 -14 -6 -18 4 -3 0 -6 -7 -6 -11 0 -11 -3 -2 -12 8
-8 15 -9 20 -3 6 9 29 19 131 63 9 3 5 -8 -10 -27 -42 -57 -43 -60 -37 -66 7
-7 50 14 104 50 59 40 62 29 9 -26 -54 -56 -50 -56 38 3 87 59 128 98 122 117
-7 25 7 39 43 37 21 -1 31 -5 27 -13 -2 -7 -1 -13 4 -13 4 0 13 -16 19 -36 10
-34 9 -38 -26 -77 l-37 -42 38 29 c39 29 66 25 54 -8 -8 -20 -101 -88 -105
-76 -2 4 -21 -4 -43 -18 -45 -29 -69 -36 -70 -19 0 7 -4 3 -9 -8 -6 -14 -9
-15 -10 -5 -1 10 -4 9 -10 -5 l-9 -20 -1 20 -1 20 -10 -20 c-8 -18 -8 -18 -6
4 1 16 9 25 22 26 11 1 28 6 39 12 16 9 17 11 2 16 -10 4 -15 3 -11 -3 3 -6
-1 -10 -9 -10 -27 0 -31 2 -28 11 1 5 -7 4 -17 -3 -11 -7 -18 -15 -15 -19 5
-9 -25 -21 -37 -13 -5 3 -9 1 -9 -5 0 -6 -7 -8 -15 -5 -8 4 -15 1 -15 -6 0 -7
-12 1 -27 17 -33 35 -70 56 -83 48 -6 -3 -10 2 -11 12 0 17 -1 17 -8 0 -6 -17
-8 -17 -20 -3 -7 8 -10 20 -6 26 3 5 -1 10 -9 10 -9 0 -16 5 -16 11 0 5 -4 8
-9 4 -5 -3 -11 3 -14 12 -3 15 -6 14 -15 -7 -9 -22 -11 -22 -12 -5 0 17 -2 17
-10 5 -8 -12 -10 -10 -10 8 0 13 -3 21 -7 19 -5 -3 -17 4 -27 14 -18 17 -18
19 -2 19 9 0 15 4 12 9 -4 5 0 12 6 15 7 3 2 4 -13 1 -17 -3 -31 2 -42 15 -9
11 -25 20 -35 20 -33 0 -123 31 -117 40 3 5 1 11 -5 15 -5 3 -10 14 -10 24 0
19 -73 59 -130 71 -19 4 -43 11 -53 15 -16 7 -17 -1 -15 -111 l3 -119 81 -11
c101 -14 212 -40 278 -63 106 -38 206 -83 200 -92 -3 -5 1 -6 9 -3 8 3 19 -2
26 -9 9 -12 8 -16 -5 -21 -10 -4 -22 -2 -28 4 -5 5 -18 10 -29 10 -14 0 -17 5
-12 21 5 15 4 19 -4 15 -6 -4 -11 -2 -11 3 0 6 -5 11 -11 11 -5 0 -8 -4 -5 -8
2 -4 -5 -9 -17 -9 -16 -2 -18 0 -8 6 11 7 7 12 -15 23 -54 28 -281 81 -396 94
l-58 6 0 -69 0 -70 63 -11 62 -10 -63 5 -63 5 3 -83 3 -84 140 2 c166 1 463
16 420 20 -166 16 -293 39 -281 51 4 3 88 12 187 18 100 7 184 15 187 18 3 4
-3 13 -14 22 -19 15 -19 15 1 7 11 -4 105 -9 210 -11 123 -2 192 -7 196 -14 6
-10 176 -26 293 -27 38 -1 47 -4 42 -16 -4 -12 7 -15 62 -16 38 -1 4 -5 -78
-10 -198 -11 -436 -36 -427 -45 2 -2 138 -10 303 -18 164 -9 329 -18 367 -21
l67 -6 0 89 0 89 -82 -13 c-62 -10 -109 -11 -192 -3 -61 5 -117 12 -124 14 -8
3 -10 0 -6 -6 4 -8 1 -8 -13 -1 -10 6 -40 8 -67 5 -36 -3 -46 -1 -41 7 5 9 1
10 -16 6 -45 -13 3 11 111 55 125 50 305 111 378 129 l52 12 0 109 c0 60 -2
109 -4 109 -2 0 -24 -11 -47 -25 l-44 -25 35 4 c19 2 26 1 16 -1 -13 -3 -15
-7 -8 -12 11 -7 -157 -111 -179 -111 -5 0 -9 -4 -9 -10 0 -6 9 -6 23 -1 12 5
49 12 82 16 32 3 63 8 66 11 4 2 10 0 14 -6 3 -5 -1 -10 -9 -10 -9 0 -16 -4
-16 -9 0 -4 -11 -6 -25 -3 -19 3 -25 0 -26 -14 0 -18 -1 -18 -9 1 l-9 20 0
-20 c-1 -17 -3 -17 -11 -5 -9 13 -10 13 -10 0 0 -13 -1 -13 -10 0 -8 12 -10
10 -11 -10 0 -22 -1 -23 -8 -6 -7 19 -8 19 -14 1 -4 -10 -10 -15 -13 -12 -4 3
-13 -1 -22 -10 -14 -14 -17 -14 -23 3 -6 16 -8 16 -8 2 -1 -10 -8 -15 -18 -13
-10 1 -24 -2 -30 -8 -10 -7 -13 -4 -13 12 0 13 6 21 16 21 9 0 14 6 11 14 -4
10 4 12 31 10 l37 -2 -35 19 c-20 11 -25 17 -12 14 34 -10 26 2 -16 24 -22 11
-46 31 -55 45 -9 13 -27 28 -39 32 -13 4 -41 22 -62 40 -45 38 -46 39 -70 21
-17 -12 -17 -14 1 -28 16 -13 17 -13 4 4 -7 9 -9 17 -3 17 16 0 24 -33 10 -42
-9 -6 -5 -7 10 -3 18 5 22 2 22 -15 0 -12 -10 -30 -22 -41 l-23 -18 28 -1 c21
0 32 -8 45 -31 9 -17 27 -47 40 -66 12 -18 22 -39 22 -46 0 -8 -3 -7 -9 2 -7
11 -10 9 -14 -10 l-4 -24 -2 25 c-1 16 -4 21 -9 13 -6 -9 -15 -7 -37 7 -17 11
-24 20 -17 20 6 0 12 5 12 11 0 5 -9 9 -19 7 -15 -2 -26 9 -45 44 -13 25 -23
55 -22 65 2 10 1 12 -1 6 -7 -19 -20 -16 -26 6 -3 12 1 22 9 25 8 3 14 12 14
21 0 8 5 15 12 15 6 0 -16 28 -48 63 -33 34 -71 78 -84 97 -39 56 -137 152
-145 141z m815 -351 c-9 -17 -78 -45 -87 -36 -4 4 78 55 90 56 4 0 3 -9 -3
-20z m-732 -22 c-3 -7 -15 -15 -28 -16 -21 -3 -22 -2 -11 12 16 19 44 21 39 4z
m179 -41 c-2 -6 -9 -13 -17 -15 -9 -3 -11 1 -7 12 3 8 3 15 -1 15 -16 -3 -23
2 -17 11 8 13 48 -7 42 -23z m-253 9 c-3 -8 -13 -17 -22 -21 -13 -5 -13 -2 3
15 21 24 26 25 19 6z m36 0 c0 -3 -4 -8 -10 -11 -5 -3 -10 -1 -10 4 0 6 5 11
10 11 6 0 10 -2 10 -4z m437 -118 c-3 -8 -6 -5 -6 6 -1 11 2 17 5 13 3 -3 4
-12 1 -19z m-237 -32 c0 -11 -68 -54 -95 -60 -25 -6 -20 -1 25 28 51 34 70 42
70 32z m-4 -68 c4 -6 2 -14 -4 -16 -7 -2 -12 -11 -13 -20 0 -14 -2 -13 -9 3
-8 18 -9 18 -9 -5 -1 -20 -3 -22 -11 -10 -7 11 -10 12 -10 2 0 -10 -4 -9 -16
3 -14 13 -19 14 -26 3 -6 -9 -8 -5 -6 12 2 20 9 25 30 25 15 1 30 4 34 8 11
11 32 8 40 -5z m-116 -31 c0 -7 -9 -13 -20 -13 -20 0 -25 7 -13 19 11 12 33 8
33 -6z m460 -67 c0 -5 -4 -10 -10 -10 -5 0 -10 5 -10 10 0 6 5 10 10 10 6 0
10 -4 10 -10z m43 3 c-7 -2 -19 -2 -25 0 -7 3 -2 5 12 5 14 0 19 -2 13 -5z"/>
<path d="M1120 1459 c0 -5 5 -7 10 -4 6 3 10 8 10 11 0 2 -4 4 -10 4 -5 0 -10
-5 -10 -11z"/>
<path d="M945 1390 c-3 -5 -2 -10 4 -10 5 0 13 5 16 10 3 6 2 10 -4 10 -5 0
-13 -4 -16 -10z"/>
<path d="M495 1360 c-3 -5 -1 -10 4 -10 6 0 11 5 11 10 0 6 -2 10 -4 10 -3 0
-8 -4 -11 -10z"/>
<path d="M449 1330 l-24 -20 28 11 c15 7 27 16 27 21 0 12 -5 10 -31 -12z"/>
<path d="M1628 1123 c7 -3 16 -2 19 1 4 3 -2 6 -13 5 -11 0 -14 -3 -6 -6z"/>
<path d="M1528 1113 c7 -3 16 -2 19 1 4 3 -2 6 -13 5 -11 0 -14 -3 -6 -6z"/>
<path d="M963 1033 c9 -2 25 -2 35 0 9 3 1 5 -18 5 -19 0 -27 -2 -17 -5z"/>
<path d="M120 940 l-45 -7 59 -1 c77 -2 66 -12 -24 -22 -86 -9 -110 -27 -110
-82 l0 -38 143 1 c86 1 132 4 117 9 -19 6 -12 9 35 11 l60 2 -50 7 c-28 4 -39
8 -25 9 l25 3 -25 8 c-14 4 -22 8 -18 9 4 1 3 12 -2 26 -6 16 -6 25 0 25 6 0
10 5 10 11 0 7 -10 9 -27 5 -21 -5 -24 -4 -13 4 8 5 23 10 32 10 9 0 20 5 23
10 7 11 -92 11 -165 0z"/>
<path d="M733 943 c9 -2 25 -2 35 0 9 3 1 5 -18 5 -19 0 -27 -2 -17 -5z"/>
</g>
</svg>
